<mxfile host="app.diagrams.net" modified="2021-12-15T03:21:44.944Z" agent="5.0 (Macintosh; Intel Mac OS X 10_15_7) AppleWebKit/537.36 (KHTML, like Gecko) Chrome/96.0.4664.93 Safari/537.36" etag="vaUVIXuEXoqLz66GEbFi" version="15.8.3" type="github">
  <diagram name="Page-1" id="b5b7bab2-c9e2-2cf4-8b2a-24fd1a2a6d21">
    <mxGraphModel dx="1113" dy="733" grid="1" gridSize="10" guides="1" tooltips="1" connect="1" arrows="1" fold="1" page="1" pageScale="1" pageWidth="1169" pageHeight="827" background="none" math="0" shadow="0">
      <root>
        <mxCell id="0" />
        <mxCell id="1" parent="0" />
        <mxCell id="bDVGSxMF10O5AHRzCZ1R-14" value="" style="shape=folder;fontStyle=1;spacingTop=10;tabWidth=120;tabHeight=50;tabPosition=left;html=1;fillColor=#f5f5f5;fontColor=#333333;strokeColor=#666666;" vertex="1" parent="1">
          <mxGeometry x="250" y="40" width="510" height="280" as="geometry" />
        </mxCell>
        <mxCell id="bDVGSxMF10O5AHRzCZ1R-17" value="&lt;font style=&quot;font-size: 23px&quot;&gt;builtin&lt;/font&gt;" style="text;html=1;strokeColor=none;fillColor=none;align=center;verticalAlign=middle;whiteSpace=wrap;rounded=0;" vertex="1" parent="1">
          <mxGeometry x="280" y="46" width="60" height="40" as="geometry" />
        </mxCell>
        <mxCell id="bDVGSxMF10O5AHRzCZ1R-18" value="&lt;p style=&quot;margin: 4px 0px 0px ; text-align: center ; font-size: 20px&quot;&gt;&lt;font style=&quot;font-size: 20px&quot;&gt;&lt;i&gt;&amp;lt;&amp;lt;Interface&amp;gt;&amp;gt;&lt;/i&gt;&lt;br&gt;&lt;b&gt;error&lt;/b&gt;&lt;/font&gt;&lt;/p&gt;&lt;hr size=&quot;1&quot; style=&quot;font-size: 20px&quot;&gt;&lt;p style=&quot;margin: 0px 0px 0px 4px ; font-size: 20px&quot;&gt;&lt;font style=&quot;font-size: 20px&quot;&gt;&lt;br&gt;&lt;/font&gt;&lt;/p&gt;&lt;hr size=&quot;1&quot; style=&quot;font-size: 20px&quot;&gt;&lt;p style=&quot;margin: 0px 0px 0px 4px ; font-size: 20px&quot;&gt;&lt;font style=&quot;font-size: 20px&quot;&gt;+ Error(): string&lt;/font&gt;&lt;/p&gt;" style="verticalAlign=top;align=left;overflow=fill;fontSize=12;fontFamily=Helvetica;html=1;" vertex="1" parent="1">
          <mxGeometry x="410" y="130" width="200" height="150" as="geometry" />
        </mxCell>
        <mxCell id="bDVGSxMF10O5AHRzCZ1R-19" value="" style="shape=folder;fontStyle=1;spacingTop=10;tabWidth=120;tabHeight=50;tabPosition=left;html=1;fillColor=#dae8fc;strokeColor=#6c8ebf;" vertex="1" parent="1">
          <mxGeometry x="250" y="400" width="510" height="280" as="geometry" />
        </mxCell>
        <mxCell id="bDVGSxMF10O5AHRzCZ1R-20" value="&lt;font style=&quot;font-size: 23px&quot;&gt;errors&lt;/font&gt;" style="text;html=1;strokeColor=none;fillColor=none;align=center;verticalAlign=middle;whiteSpace=wrap;rounded=0;" vertex="1" parent="1">
          <mxGeometry x="280" y="406" width="60" height="40" as="geometry" />
        </mxCell>
        <mxCell id="bDVGSxMF10O5AHRzCZ1R-23" value="&lt;p style=&quot;margin: 4px 0px 0px ; text-align: center ; font-size: 20px&quot;&gt;&lt;b&gt;&lt;font style=&quot;font-size: 20px&quot;&gt;errorString&lt;/font&gt;&lt;/b&gt;&lt;/p&gt;&lt;hr size=&quot;1&quot; style=&quot;font-size: 20px&quot;&gt;&lt;p style=&quot;margin: 0px 0px 0px 4px ; font-size: 20px&quot;&gt;&lt;font style=&quot;font-size: 20px&quot;&gt;- s: string&lt;/font&gt;&lt;/p&gt;&lt;hr size=&quot;1&quot; style=&quot;font-size: 20px&quot;&gt;&lt;p style=&quot;margin: 0px 0px 0px 4px ; font-size: 20px&quot;&gt;&lt;font style=&quot;font-size: 20px&quot;&gt;+ Error(): string&lt;/font&gt;&lt;/p&gt;" style="verticalAlign=top;align=left;overflow=fill;fontSize=12;fontFamily=Helvetica;html=1;" vertex="1" parent="1">
          <mxGeometry x="407" y="500" width="205" height="130" as="geometry" />
        </mxCell>
        <mxCell id="bDVGSxMF10O5AHRzCZ1R-25" value="" style="shape=folder;fontStyle=1;spacingTop=10;tabWidth=120;tabHeight=50;tabPosition=left;html=1;fillColor=#d5e8d4;strokeColor=#82b366;" vertex="1" parent="1">
          <mxGeometry x="850" y="400" width="510" height="280" as="geometry" />
        </mxCell>
        <mxCell id="bDVGSxMF10O5AHRzCZ1R-26" value="&lt;font style=&quot;font-size: 23px&quot;&gt;fmt&lt;br&gt;&lt;/font&gt;" style="text;html=1;strokeColor=none;fillColor=none;align=center;verticalAlign=middle;whiteSpace=wrap;rounded=0;" vertex="1" parent="1">
          <mxGeometry x="875.5" y="409" width="60" height="40" as="geometry" />
        </mxCell>
        <mxCell id="bDVGSxMF10O5AHRzCZ1R-27" value="&lt;p style=&quot;margin: 4px 0px 0px ; text-align: center ; font-size: 20px&quot;&gt;&lt;b&gt;warpError&lt;/b&gt;&lt;/p&gt;&lt;hr size=&quot;1&quot; style=&quot;font-size: 20px&quot;&gt;&lt;p style=&quot;margin: 0px 0px 0px 4px ; font-size: 20px&quot;&gt;&lt;font style=&quot;font-size: 20px&quot;&gt;- msg: string&lt;/font&gt;&lt;/p&gt;&lt;p style=&quot;margin: 0px 0px 0px 4px ; font-size: 20px&quot;&gt;&lt;font style=&quot;font-size: 20px&quot;&gt;- err: error&lt;/font&gt;&lt;/p&gt;&lt;hr size=&quot;1&quot; style=&quot;font-size: 20px&quot;&gt;&lt;p style=&quot;margin: 0px 0px 0px 4px ; font-size: 20px&quot;&gt;&lt;font style=&quot;font-size: 20px&quot;&gt;+ Error(): string&lt;/font&gt;&lt;/p&gt;&lt;p style=&quot;margin: 0px 0px 0px 4px ; font-size: 20px&quot;&gt;+ Unwarp: error&lt;/p&gt;" style="verticalAlign=top;align=left;overflow=fill;fontSize=12;fontFamily=Helvetica;html=1;" vertex="1" parent="1">
          <mxGeometry x="1002.5" y="478" width="227.5" height="174" as="geometry" />
        </mxCell>
        <mxCell id="bDVGSxMF10O5AHRzCZ1R-30" value="Extends" style="endArrow=block;endSize=16;endFill=0;html=1;rounded=0;fontSize=20;exitX=0;exitY=0;exitDx=0;exitDy=0;" edge="1" parent="1" source="bDVGSxMF10O5AHRzCZ1R-27">
          <mxGeometry x="-0.2392" y="-22" width="160" relative="1" as="geometry">
            <mxPoint x="620" y="420" as="sourcePoint" />
            <mxPoint x="510" y="280" as="targetPoint" />
            <Array as="points">
              <mxPoint x="780" y="370" />
            </Array>
            <mxPoint as="offset" />
          </mxGeometry>
        </mxCell>
        <mxCell id="bDVGSxMF10O5AHRzCZ1R-31" value="Extends" style="endArrow=block;endSize=16;endFill=0;html=1;rounded=0;fontSize=20;" edge="1" parent="1" source="bDVGSxMF10O5AHRzCZ1R-23">
          <mxGeometry x="-0.0909" width="160" relative="1" as="geometry">
            <mxPoint x="620" y="420" as="sourcePoint" />
            <mxPoint x="510" y="280" as="targetPoint" />
            <mxPoint as="offset" />
          </mxGeometry>
        </mxCell>
      </root>
    </mxGraphModel>
  </diagram>
</mxfile>
